<!-- ⚠️ This logo is also used in the README for the
      https://github.com/apollographql/apollo-client repository ⚠️

      Moving the file will break the link in that README, proceed with care.
 -->
<svg xmlns="http://www.w3.org/2000/svg" width="253" height="87" fill="none"><path fill="#15252D" d="M141.613 50.612a16.232 16.232 0 0 1-6.217 6.445c-2.663 1.55-5.695 2.325-9.099 2.325-3.403 0-6.435-.775-9.098-2.325a16.215 16.215 0 0 1-6.217-6.445c-1.483-2.746-2.225-5.82-2.224-9.224 0-3.404.742-6.478 2.224-9.225a16.227 16.227 0 0 1 6.217-6.444c2.662-1.55 5.695-2.325 9.098-2.325 3.404 0 6.437.774 9.099 2.325a16.244 16.244 0 0 1 6.217 6.444c1.482 2.747 2.224 5.822 2.224 9.225 0 3.404-.741 6.479-2.224 9.224Zm-23.908-3.26c.809 1.753 1.955 3.126 3.437 4.12 1.483.993 3.201 1.49 5.156 1.49 1.921 0 3.622-.496 5.105-1.49 1.483-.994 2.628-2.367 3.437-4.12.809-1.752 1.213-3.74 1.213-5.964s-.404-4.212-1.213-5.964c-.809-1.752-1.954-3.126-3.437-4.12-1.483-.994-3.184-1.491-5.105-1.49-1.955 0-3.673.496-5.156 1.49-1.482.994-2.628 2.367-3.437 4.12-.809 1.752-1.213 3.74-1.213 5.964s.404 4.212 1.213 5.964ZM249.781 50.612a16.232 16.232 0 0 1-6.217 6.445c-2.663 1.55-5.695 2.325-9.099 2.325-3.403 0-6.435-.775-9.098-2.325a16.215 16.215 0 0 1-6.217-6.445c-1.483-2.746-2.225-5.82-2.224-9.224 0-3.404.742-6.478 2.224-9.225a16.227 16.227 0 0 1 6.217-6.444c2.662-1.55 5.695-2.325 9.098-2.325 3.404 0 6.437.774 9.099 2.325a16.244 16.244 0 0 1 6.217 6.444c1.482 2.747 2.224 5.822 2.224 9.225 0 3.404-.741 6.479-2.224 9.224Zm-23.908-3.26c.809 1.753 1.955 3.126 3.437 4.12 1.483.993 3.201 1.49 5.156 1.49 1.921 0 3.622-.496 5.105-1.49 1.483-.994 2.628-2.367 3.437-4.12.809-1.752 1.213-3.74 1.213-5.964s-.404-4.212-1.213-5.964c-.809-1.752-1.954-3.126-3.437-4.12-1.483-.994-3.184-1.491-5.105-1.49-1.955 0-3.673.496-5.156 1.49-1.482.994-2.628 2.367-3.437 4.12-.809 1.752-1.213 3.74-1.213 5.964s.404 4.212 1.213 5.964ZM58.86 52.87l-1.669-4.742-2.197-6.244-1.59-4.52-2.081-5.913-2.417-6.87H37.18l-1.872 5.32-1.669 4.742-8.287 23.551h7.733l2.426-6.874H47.24l-2.081-5.914h-7.574l1.59-4.519 3.32-9.436.549-1.562.549 1.562 9.406 26.738.002.006h7.734L58.86 52.87ZM97.536 27.589c1.752 2.005 2.628 4.591 2.628 7.758 0 3.336-.868 6.024-2.603 8.062-1.736 2.04-4.423 3.058-8.062 3.058h-10.11v11.727h-7.733V24.58H89.5c3.605 0 6.284 1.003 8.037 3.008ZM87.073 40.503c1.786 0 3.083-.455 3.892-1.365.809-.91 1.213-2.156 1.213-3.74 0-3.235-1.685-4.853-5.054-4.853H79.39v9.958h7.683ZM161.94 24.581v27.497h15.72v6.116h-23.453V24.581h7.733ZM193.944 24.581v27.497h15.72v6.116h-23.453V24.581h7.733Z"/><path fill="#15252D" d="M66.644 13.647a4.482 4.482 0 1 0-2.562-8.16 43.052 43.052 0 1 0 3.566 72.898 1.756 1.756 0 0 0-2.01-2.88 39.534 39.534 0 1 1-3.423-67.039 4.485 4.485 0 0 0 4.428 5.18Z"/>
  <style>
    path {
      fill: #15252D;
    }
    @media (prefers-color-scheme: dark) {
      path {
        fill: #feeadb;
      }
    }
  </style>
</svg>