<?xml version="1.0" encoding="UTF-8" standalone="no"?>
<svg
    width="40"
    height="40"
    viewBox="0 0 4.096 4.096"
    preserveAspectRatio="xMidYMid"
    version="1.1"
    id="svg909"
    xmlns="http://www.w3.org/2000/svg"
>
  <defs
      id="defs913" />
  <path
      d="m 2.5120688,2.7754836 h 0.397872 L 2.2748,1.1271092 H 1.8348944 L 1.1997536,2.7754836 h 0.3979008 l 0.1037952,-0.279217 h 0.60012 L 2.192936,2.1872989 H 1.7978 L 2.05484,1.4780386 Z M 3.8240816,1.5550645 a 0.0956304,0.09563079 0 0 0 -0.117864,-0.066629 0.0957312,0.09573159 0 0 0 -0.066645,0.1178358 1.6509024,1.6509089 0 0 1 0.060165,0.4417361 c 0,0.9107748 -0.7409664,1.651715 -1.6517376,1.651715 -0.9107712,0 -1.6517232,-0.7409402 -1.6517232,-1.651715 0,-0.9107892 0.740952,-1.65174406 1.6517232,-1.65174406 0.3858192,0 0.7591392,0.13705974 1.0537776,0.3809679 a 0.2295072,0.2295081 0 0 0 -0.01782,0.0888915 c 0,0.1272246 0.1031319,0.23035766 0.2303568,0.23035766 0.127224,0 0.230358,-0.10313306 0.230358,-0.23035766 0,-0.1272246 -0.103131,-0.2303577 -0.230358,-0.2303577 -0.02448,0 -0.048069,0.003903 -0.070215,0.010989 C 2.9123168,0.36400703 2.4873872,0.2048 2.048,0.2048 c -1.0163376,0 -1.8432,0.8268512 -1.8432,1.8432072 0,1.0163416 0.8268624,1.8431928 1.8432,1.8431928 1.0163376,0 1.8432,-0.8268512 1.8432,-1.8431928 A 1.84248,1.8424872 0 0 0 3.8240816,1.5550645 Z"
      fill="#7156d9"
      id="path907"
      style="stroke-width:3" />
</svg>
