<?xml version="1.0" encoding="UTF-8"?>
<svg width="213px" height="238px" viewBox="0 0 213 238" version="1.1" xmlns="http://www.w3.org/2000/svg" xmlns:xlink="http://www.w3.org/1999/xlink">
    <title>logo</title>
    <g id="Page-1" stroke="none" stroke-width="1" fill="none" fill-rule="evenodd">
        <g id="logo" fill="#3F20BA" fill-rule="nonzero">
            <path d="M167.22,158.36 L145.22,158.36 L119.95,86.66 L105.76,125.88 L127.6,125.88 L133.6,142.95 L100.43,142.95 L94.69,158.38 L72.69,158.38 L107.79,67.28 L132.1,67.28 L167.22,158.36 Z M207.28,186.01 C205.652936,186.009105 204.127189,186.799957 203.19,188.13 C203.19,188.13 198.82,193.13 196.46,195.48 C155.070441,236.92941 88.2819673,238.132574 45.4263626,198.200803 C2.57075783,158.269033 -0.940787217,91.562085 37.4854501,47.3515267 C75.9116875,3.14096834 142.457349,-2.67475859 187.97,34.2 C186.089933,39.66183 188.280792,45.6948391 193.227463,48.6775705 C198.174134,51.660302 204.532271,50.7821459 208.485252,46.5702363 C212.438233,42.3583267 212.911765,35.9573244 209.621599,31.2095826 C206.331434,26.4618409 200.171732,24.6576424 194.84,26.88 C144.236128,-14.5816976 69.62237,-7.26947049 28.0305452,43.2275028 C-13.5612796,93.7244761 -6.44114757,168.35681 43.9485927,210.078487 C94.3383329,251.800163 168.988748,244.872173 210.84,194.59 C212.289569,193.16055 212.727718,190.994953 211.94783,189.114434 C211.167942,187.233915 209.325761,186.014015 207.29,186.03 L207.28,186.01 Z" id="Shape"></path>
        </g>
    </g>
</svg>