<svg xmlns="http://www.w3.org/2000/svg" width="16" height="16" viewBox="0 0 16 16">
  <g fill="#DF0098" fill-rule="evenodd" transform="translate(1.08 .5)">
    <polygon points="1.242 11.428 .692 11.111 6.82 .497 7.371 .814" />
    <polygon points=".566 10.263 12.823 10.263 12.823 10.898 .566 10.898" />
    <path
        d="M6.93933673,14.1591582 L0.808852041,10.6196173 L1.12645408,10.0695153 L7.25693878,13.6090561 L6.93933673,14.1591582 Z M12.2648724,4.93419643 L6.13438776,1.39465561 L6.4519898,0.844553571 L12.5824745,4.38409439 L12.2648724,4.93419643 Z" />
    <polygon points="1.128 4.932 .811 4.382 6.941 .842 7.259 1.392" />
    <path
        d="M12.1518367,11.4284311 L6.02364796,0.81440051 L6.57375,0.496798469 L12.7019388,11.1108291 L12.1518367,11.4284311 Z M1.05229592,3.96045918 L1.6875,3.96045918 L1.6875,11.0395408 L1.05229592,11.0395408 L1.05229592,3.96045918 Z M11.7053571,3.96045918 L12.3405612,3.96045918 L12.3405612,11.0395408 L11.7053571,11.0395408 L11.7053571,3.96045918 Z" />
    <polygon points="6.831 13.89 6.554 13.41 11.886 10.331 12.163 10.812" />
    <path
        d="M13.182398,11.2461735 C12.815051,11.8852041 11.9961735,12.1033163 11.3571429,11.7359694 C10.7181122,11.3686224 10.5,10.5497449 10.8673469,9.91071429 C11.2346939,9.27168367 12.0535714,9.05357143 12.692602,9.42091837 C13.3354592,9.79209184 13.5535714,10.6071429 13.182398,11.2461735 M2.52168367,5.08928571 C2.15433673,5.72831633 1.33545918,5.94642857 0.696428571,5.57908163 C0.0573979592,5.21173469 -0.160714286,4.39285714 0.206632653,3.75382653 C0.573979592,3.11479592 1.39285714,2.89668367 2.03188776,3.26403061 C2.67091837,3.63520408 2.88903061,4.4502551 2.52168367,5.08928571 M0.210459184,11.2461735 C-0.156887755,10.6071429 0.0612244898,9.79209184 0.700255102,9.42091837 C1.33928571,9.05357143 2.15433673,9.27168367 2.5255102,9.91071429 C2.89285714,10.5497449 2.6747449,11.3647959 2.03571429,11.7359694 C1.39285714,12.1033163 0.577806122,11.8852041 0.210459184,11.2461735 M10.8711735,5.08928571 C10.5038265,4.4502551 10.7219388,3.63520408 11.3609694,3.26403061 C12,2.89668367 12.815051,3.11479592 13.1862245,3.75382653 C13.5535714,4.39285714 13.3354592,5.20790816 12.6964286,5.57908163 C12.057398,5.94642857 11.2385204,5.72831633 10.8711735,5.08928571 M6.69642857,14.9923469 C5.95790816,14.9923469 5.36096939,14.3954082 5.36096939,13.6568878 C5.36096939,12.9183673 5.95790816,12.3214286 6.69642857,12.3214286 C7.43494898,12.3214286 8.03188776,12.9183673 8.03188776,13.6568878 C8.03188776,14.3915816 7.43494898,14.9923469 6.69642857,14.9923469 M6.69642857,2.67857143 C5.95790816,2.67857143 5.36096939,2.08163265 5.36096939,1.34311224 C5.36096939,0.604591837 5.95790816,0.00765306122 6.69642857,0.00765306122 C7.43494898,0.00765306122 8.03188776,0.604591837 8.03188776,1.34311224 C8.03188776,2.08163265 7.43494898,2.67857143 6.69642857,2.67857143" />
    <path
        d="m 0.7690896,0.85689453 h 0.132624 L 0.69,0.3074364 H 0.5433648 L 0.3316512,0.85689453 H 0.4642848 L 0.4988832,0.7638222 h 0.20004 L 0.662712,0.66083298 H 0.531 L 0.61668,0.42441285 Z M 1.2064272,0.45008816 a 0.0318768,0.03187693 0 0 0 -0.039288,-0.0222097 0.0319104,0.03191053 0 0 0 -0.022215,0.0392786 0.5503008,0.55030296 0 0 1 0.020055,0.14724538 c 0,0.30359159 -0.2469888,0.55057166 -0.5505792,0.55057166 -0.3035904,0 -0.5505744,-0.24698007 -0.5505744,-0.55057166 0,-0.3035964 0.246984,-0.55058136 0.5505744,-0.55058136 0.1286064,0 0.2530464,0.04568658 0.3512592,0.1269893 a 0.0765024,0.0765027 0 0 0 -0.00594,0.0296305 c 0,0.0424082 0.0343773,0.0767859 0.0767856,0.0767859 0.042408,0 0.076786,-0.0343777 0.076786,-0.0767859 0,-0.0424082 -0.034377,-0.0767859 -0.076786,-0.0767859 -0.00816,0 -0.016023,0.001301 -0.023405,0.003663 C 0.9025056,0.05306901 0.7608624,0 0.6144,0 0.2756208,0 0,0.27561707 0,0.6144024 0,0.95318293 0.2756208,1.2288 0.6144,1.2288 c 0.3387792,0 0.6144,-0.27561707 0.6144,-0.6143976 A 0.61416,0.6141624 0 0 0 1.2064272,0.45008816 Z"
        fill="#15252D" stroke-width=".04" stroke="#15252D"
        transform="translate(6 6) scale(7)"
    />

  </g>
</svg>
