<?xml version="1.0" encoding="utf-8"?>
<svg version="1.1" id="GraphQL" xmlns="http://www.w3.org/2000/svg" x="0px" y="0px"
     width="16" height="16" viewBox="0 0 16 16" style="enable-background:new 0 0 16 16;" xml:space="preserve">
<style type="text/css">
	.st0{fill-rule:evenodd;clip-rule:evenodd;fill:#FFFFFF;}
	.st1{fill-rule:evenodd;clip-rule:evenodd;fill:#FF31CA;}
</style>
  <g id="white" transform="translate(1.08 .5)">
	<polygon class="st0" points="1.2,11.4 0.7,11.1 6.8,0.5 7.4,0.8 	" />
    <polygon class="st0" points="0.6,10.3 12.8,10.3 12.8,10.9 0.6,10.9 	" />
    <path class="st0" d="M6.9,14.2l-6.1-3.5l0.3-0.6l6.1,3.5L6.9,14.2z M12.3,4.9L6.1,1.4l0.3-0.6l6.1,3.5L12.3,4.9z" />
    <polygon class="st0" points="1.1,4.9 0.8,4.4 6.9,0.8 7.3,1.4 	" />
    <path class="st0" d="M12.2,11.4L6,0.8l0.6-0.3l6.1,10.6L12.2,11.4z M1.1,4h0.6V11H1.1V4z M11.7,4h0.6V11h-0.6V4z" />
    <polygon class="st0" points="6.8,13.9 6.6,13.4 11.9,10.3 12.2,10.8 	" />
    <path class="st0" d="M13.2,11.2c-0.4,0.6-1.2,0.9-1.8,0.5c-0.6-0.4-0.9-1.2-0.5-1.8s1.2-0.9,1.8-0.5C13.3,9.8,13.6,10.6,13.2,11.2
		 M2.5,5.1C2.2,5.7,1.3,5.9,0.7,5.6C0.1,5.2-0.2,4.4,0.2,3.8S1.4,2.9,2,3.3C2.7,3.6,2.9,4.5,2.5,5.1 M0.2,11.2
		c-0.4-0.6-0.1-1.5,0.5-1.8c0.6-0.4,1.5-0.1,1.8,0.5c0.4,0.6,0.1,1.5-0.5,1.8C1.4,12.1,0.6,11.9,0.2,11.2 M10.9,5.1
		c-0.4-0.6-0.1-1.5,0.5-1.8c0.6-0.4,1.5-0.1,1.8,0.5c0.4,0.6,0.1,1.5-0.5,1.8C12.1,5.9,11.2,5.7,10.9,5.1 M6.7,15
		c-0.7,0-1.3-0.6-1.3-1.3s0.6-1.3,1.3-1.3S8,12.9,8,13.7C8,14.4,7.4,15,6.7,15 M6.7,2.7C6,2.7,5.4,2.1,5.4,1.3S6,0,6.7,0
		S8,0.6,8,1.3S7.4,2.7,6.7,2.7" />
</g>
  <g id="color" transform="translate(1.08 .5)">
	<polygon class="st1" points="1.2,11.4 0.7,11.1 6.8,0.5 7.4,0.8 	" />
    <polygon class="st1" points="0.6,10.3 12.8,10.3 12.8,10.9 0.6,10.9 	" />
    <path class="st1" d="M6.9,14.2l-6.1-3.5l0.3-0.6l6.1,3.5L6.9,14.2z M12.3,4.9L6.1,1.4l0.3-0.6l6.1,3.5L12.3,4.9z" />
    <polygon class="st1" points="1.1,4.9 0.8,4.4 6.9,0.8 7.3,1.4 	" />
    <path class="st1" d="M12.2,11.4L6,0.8l0.6-0.3l6.1,10.6L12.2,11.4z M1.1,4h0.6V11H1.1V4z M11.7,4h0.6V11h-0.6V4z" />
    <polygon class="st1" points="6.8,13.9 6.6,13.4 11.9,10.3 12.2,10.8 	" />
    <path class="st1" d="M13.2,11.2c-0.4,0.6-1.2,0.9-1.8,0.5c-0.6-0.4-0.9-1.2-0.5-1.8s1.2-0.9,1.8-0.5C13.3,9.8,13.6,10.6,13.2,11.2
		 M2.5,5.1C2.2,5.7,1.3,5.9,0.7,5.6C0.1,5.2-0.2,4.4,0.2,3.8S1.4,2.9,2,3.3C2.7,3.6,2.9,4.5,2.5,5.1 M0.2,11.2
		c-0.4-0.6-0.1-1.5,0.5-1.8c0.6-0.4,1.5-0.1,1.8,0.5c0.4,0.6,0.1,1.5-0.5,1.8C1.4,12.1,0.6,11.9,0.2,11.2 M10.9,5.1
		c-0.4-0.6-0.1-1.5,0.5-1.8c0.6-0.4,1.5-0.1,1.8,0.5c0.4,0.6,0.1,1.5-0.5,1.8C12.1,5.9,11.2,5.7,10.9,5.1 M6.7,15
		c-0.7,0-1.3-0.6-1.3-1.3s0.6-1.3,1.3-1.3S8,12.9,8,13.7C8,14.4,7.4,15,6.7,15 M6.7,2.7C6,2.7,5.4,2.1,5.4,1.3S6,0,6.7,0
		S8,0.6,8,1.3S7.4,2.7,6.7,2.7" />
</g>
</svg>
