<svg width="120" height="120" viewBox="0 0 120 120" fill="none" xmlns="http://www.w3.org/2000/svg">
  <mask id="mask0_11_20" style="mask-type:alpha" maskUnits="userSpaceOnUse" x="0" y="0" width="120" height="120">
    <path d="M0 0.03125H119.981V120H0V0.03125Z" fill="white"/>
  </mask>
  <g mask="url(#mask0_11_20)">
    <path fill-rule="evenodd" clip-rule="evenodd" d="M57.0135 0.0838231C56.7828 0.0942922 55.9122 0.167724 55.0731 0.230687C44.5845 1.00679 33.9491 4.88758 25.2331 11.1178C22.3487 13.1736 20.0727 15.1035 17.5344 17.6417C2.94482 32.2418 -3.06516 53.1351 1.49736 73.4305C3.36432 81.7585 7.35 90.1389 12.6363 96.8726C20.9327 107.456 32.3024 114.913 45.0565 118.143C50.2484 119.465 54.5592 120 60.0028 120C65.3729 120 69.3272 119.517 74.4456 118.269C81.7981 116.465 88.2591 113.497 94.72 108.976C100.908 104.634 106.667 98.5507 110.799 91.9954C116.127 83.5206 119.158 74.1648 119.903 63.8964C120.06 61.7358 119.966 56.3866 119.735 54.184C119.274 49.8102 118.099 44.0415 117.417 42.8353C117.145 42.3633 116.379 41.755 115.813 41.5557C115.613 41.4928 115.173 41.4404 114.816 41.4404C113.243 41.4404 111.921 42.7514 111.921 44.2933C111.921 44.6603 112.089 45.5414 112.33 46.4958C114.407 54.5721 114.575 63.4454 112.802 71.5426C110.537 81.9159 105.481 91.0619 97.8561 98.5612C94.3005 102.054 90.8707 104.634 86.4341 107.172C76.0818 113.098 63.2123 115.343 51.1399 113.329C41.9729 111.808 34.012 108.284 26.4498 102.4C22.8941 99.631 18.5624 95.0685 15.8773 91.2507C11.2413 84.6638 8.32546 77.7204 6.81509 69.6547C6.04946 65.5431 5.78724 60.089 6.14383 55.6524C6.68926 48.9187 8.3779 42.6675 11.2413 36.7414C12.5628 33.9829 13.381 32.546 14.9648 30.1651C18.1952 25.2774 22.4746 20.7044 27.2049 17.0753C32.7534 12.8065 39.3402 9.5655 46.0005 7.82442C49.5981 6.88042 52.472 6.40842 56.122 6.14624C69.3272 5.20224 82.1652 8.99913 92.6223 16.96C93.3985 17.5473 94.2165 18.1871 94.4368 18.3864L94.8354 18.7325L94.6781 19.1731C93.8705 21.4386 94.4683 24.26 96.1675 26.2319C97.038 27.2388 98.6113 28.1827 99.9434 28.4974C100.856 28.7176 102.44 28.7176 103.363 28.4974C105.702 27.9415 107.883 25.9382 108.575 23.7146C109.352 21.2288 108.901 18.7745 107.306 16.7816C105.544 14.579 102.513 13.5931 99.7126 14.3273L99.1042 14.4847L98.2442 13.7714C94.7515 10.8451 90.5246 8.13903 86.0774 5.98891C78.8613 2.49617 71.6136 0.618737 63.3592 0.11528C61.7754 0.0208601 58.031 -7.81733e-05 57.0135 0.0838231Z" fill="white"/>
  </g>
  <path fill-rule="evenodd" clip-rule="evenodd" d="M51.8128 35.2567C50.6811 38.1548 48.2257 44.501 46.3361 49.3558C44.4465 54.2106 40.5712 64.1846 37.7207 71.5145C34.881 78.8442 32.5216 84.8731 32.5 84.9154C32.4682 84.9683 35.4681 85.0001 39.1513 85.0001H45.8663L46.2613 83.9107C46.4855 83.3183 47.2755 81.2241 48.0122 79.2568L49.3573 75.6923H59.4352C67.4635 75.6923 69.5132 75.6606 69.4812 75.5549C69.3744 75.2693 67.7304 70.6154 66.8549 68.1298L65.9154 65.4856L59.2431 65.4327L52.5814 65.3798L56.9158 53.5442C59.5207 46.4365 61.2822 41.7827 61.3142 41.8885C61.3569 41.9837 63.0864 46.8596 65.1682 52.7193C67.2499 58.5789 70.6876 68.225 72.8013 74.1587L76.6339 84.9472L83.3169 84.9789C86.9894 84.9895 90 84.9789 90 84.9577C90 84.9366 89.1353 82.6837 88.0677 79.9654C87.0001 77.2366 84.7155 71.3664 82.986 66.9135C81.2566 62.4606 79.3136 57.4683 78.6623 55.8077C78.0218 54.1471 76.9008 51.2702 76.1749 49.4087C75.4489 47.5471 73.5593 42.6712 71.9579 38.5673C70.3566 34.4635 68.958 30.8567 68.8407 30.55L68.6377 30H53.8518L51.8128 35.2567Z" fill="white"/>
</svg>
